<svg width="12" height="12" viewBox="0 0 12 12" fill="none" xmlns="http://www.w3.org/2000/svg">
<path fill-rule="evenodd" clip-rule="evenodd" d="M6.32701 4C6.8474 4 7.27317 3.55 7.27317 3C7.27317 2.45 6.8474 2 6.32701 2C5.80663 2 5.38086 2.45 5.38086 3C5.38086 3.55 5.80663 4 6.32701 4ZM6.32701 5C5.80663 5 5.38086 5.45 5.38086 6C5.38086 6.55 5.80663 7 6.32701 7C6.8474 7 7.27317 6.55 7.27317 6C7.27317 5.45 6.8474 5 6.32701 5ZM5.38086 9C5.38086 8.45 5.80663 8 6.32701 8C6.8474 8 7.27317 8.45 7.27317 9C7.27317 9.55 6.8474 10 6.32701 10C5.80663 10 5.38086 9.55 5.38086 9Z" fill="#818EA3"/>
</svg>
